<?xml version="1.0" encoding="UTF-8" standalone="no"?>
<svg
   xmlns:dc="http://purl.org/dc/elements/1.1/"
   xmlns:cc="http://creativecommons.org/ns#"
   xmlns:rdf="http://www.w3.org/1999/02/22-rdf-syntax-ns#"
   xmlns:svg="http://www.w3.org/2000/svg"
   xmlns="http://www.w3.org/2000/svg"
   xmlns:sodipodi="http://sodipodi.sourceforge.net/DTD/sodipodi-0.dtd"
   xmlns:inkscape="http://www.inkscape.org/namespaces/inkscape"
   inkscape:version="1.0beta2 (2b71d25, 2019-12-03)"
   sodipodi:docname="logo_plain.svg"
   id="svg3140"
   version="1.1"
   width="256.19"
   height="256.19">
  <sodipodi:namedview
     inkscape:current-layer="svg3140"
     inkscape:window-maximized="0"
     inkscape:window-y="23"
     inkscape:window-x="0"
     inkscape:cy="128.095"
     inkscape:cx="128.095"
     inkscape:zoom="3.9658066"
     showgrid="false"
     id="namedview864"
     inkscape:window-height="1208"
     inkscape:window-width="1889"
     inkscape:pageshadow="2"
     inkscape:pageopacity="0"
     guidetolerance="10"
     gridtolerance="10"
     objecttolerance="10"
     borderopacity="1"
     inkscape:document-rotation="0"
     bordercolor="#666666"
     pagecolor="#ffffff" />
  <metadata
     id="metadata3146">
    <rdf:RDF>
      <cc:Work
         rdf:about="">
        <dc:format>image/svg+xml</dc:format>
        <dc:type
           rdf:resource="http://purl.org/dc/dcmitype/StillImage" />
        <dc:title />
      </cc:Work>
    </rdf:RDF>
  </metadata>
  <defs
     id="defs3144" />
  <g
     transform="matrix(1.1493866,0,0,1.1493866,3.1814369,-10.444957)"
     id="g3920" />
  <g
     id="layer3"
     style="display:inline;stroke:#808080;stroke-opacity:1">
    <path
       style="color:#000000;display:inline;overflow:visible;visibility:visible;fill:none;fill-opacity:0;fill-rule:nonzero;stroke:#808080;stroke-width:2.45861483;stroke-linecap:butt;stroke-linejoin:miter;stroke-miterlimit:4;stroke-dasharray:none;stroke-dashoffset:0;stroke-opacity:1;marker:none;enable-background:accumulate"
       d="M 131.47308 246.10718 L 129.34053 214.30458 "
       id="path1043" />
    <path
       style="color:#000000;display:inline;overflow:visible;visibility:visible;fill:none;fill-opacity:0;fill-rule:nonzero;stroke:#808080;stroke-width:2.45861483;stroke-linecap:butt;stroke-linejoin:miter;stroke-miterlimit:4;stroke-dasharray:none;stroke-dashoffset:0;stroke-opacity:1;marker:none;enable-background:accumulate"
       d="M 124.50002 87.740077 C 103.46642 61.227231 79.483473 37.859443 52.569247 18.111282 "
       id="path1041" />
    <path
       style="color:#000000;display:inline;overflow:visible;visibility:visible;fill:none;fill-opacity:0;fill-rule:nonzero;stroke:#808080;stroke-width:2.45861483;stroke-linecap:butt;stroke-linejoin:miter;stroke-miterlimit:4;stroke-dasharray:none;stroke-dashoffset:0;stroke-opacity:1;marker:none;enable-background:accumulate"
       d="M 149.08967 244.53096 C 146.83038 227.14411 145.77718 211.01403 145.32432 194.99084 "
       id="path1037" />
    <path
       style="color:#000000;display:inline;overflow:visible;visibility:visible;fill:none;fill-opacity:0;fill-rule:nonzero;stroke:#808080;stroke-width:2.45861483;stroke-linecap:butt;stroke-linejoin:miter;stroke-miterlimit:4;stroke-dasharray:none;stroke-dashoffset:0;stroke-opacity:1;marker:none;enable-background:accumulate"
       d="M 161.61234 100.07825 C 186.40183 76.473659 212.9264 56.339249 240.97416 39.251203 "
       id="path1035" />
    <path
       style="color:#000000;display:inline;overflow:visible;visibility:visible;fill:none;fill-opacity:0;fill-rule:nonzero;stroke:#808080;stroke-width:2.45861483;stroke-linecap:butt;stroke-linejoin:miter;stroke-miterlimit:4;stroke-dasharray:none;stroke-dashoffset:0;stroke-opacity:1;marker:none;enable-background:accumulate"
       d="M 144.74365 195.07479 C 139.78909 201.55392 134.66063 207.96343 129.34053 214.30458 L 84.464566 195.76079 "
       id="path1031" />
    <path
       style="color:#000000;display:inline;overflow:visible;visibility:visible;fill:none;fill-opacity:0;fill-rule:nonzero;stroke:#808080;stroke-width:2.45861483;stroke-linecap:butt;stroke-linejoin:miter;stroke-miterlimit:4;stroke-dasharray:none;stroke-dashoffset:0;stroke-opacity:1;marker:none;enable-background:accumulate"
       d="M 245.0538 12.17727 C 226.7234 55.625091 207.71341 96.555526 184.91752 135.1892 "
       id="path1027" />
    <path
       style="color:#000000;display:inline;overflow:visible;visibility:visible;fill:none;fill-opacity:0;fill-rule:nonzero;stroke:#808080;stroke-width:2.45861483;stroke-linecap:butt;stroke-linejoin:miter;stroke-miterlimit:4;stroke-dasharray:none;stroke-dashoffset:0;stroke-opacity:1;marker:none;enable-background:accumulate"
       d="M 165.19201 195.18797 C 157.01293 205.61971 144.78218 211.68228 129.34053 214.30458 C 123.08728 208.52154 117.37057 202.02312 112.00716 195.05364 "
       id="path1023" />
    <path
       style="color:#000000;display:inline;overflow:visible;visibility:visible;fill:none;fill-opacity:0;fill-rule:nonzero;stroke:#808080;stroke-width:2.45861483;stroke-linecap:butt;stroke-linejoin:miter;stroke-miterlimit:4;stroke-dasharray:none;stroke-dashoffset:0;stroke-opacity:1;marker:none;enable-background:accumulate"
       d="M 207.24283 199.27921 C 196.83262 208.7165 180.74304 207.9278 171.30575 197.51759 C 170.59908 196.73807 169.94974 195.9267 169.35749 195.08866 "
       id="path1019" />
    <path
       style="color:#000000;display:inline;overflow:visible;visibility:visible;fill:none;fill-opacity:0;fill-rule:nonzero;stroke:#808080;stroke-width:2.45861483;stroke-linecap:butt;stroke-linejoin:miter;stroke-miterlimit:4;stroke-dasharray:none;stroke-dashoffset:0;stroke-opacity:1;marker:none;enable-background:accumulate"
       d="M 155.99483 92.142633 C 164.71036 81.253135 178.03128 75.307649 196.46906 74.855281 "
       id="path1017" />
    <path
       style="color:#000000;display:inline;overflow:visible;visibility:visible;fill:none;fill-opacity:0;fill-rule:nonzero;stroke:#808080;stroke-width:2.45861483;stroke-linecap:butt;stroke-linejoin:miter;stroke-miterlimit:4;stroke-dasharray:none;stroke-dashoffset:0;stroke-opacity:1;marker:none;enable-background:accumulate"
       d="M 245.42466 77.080536 C 221.08312 92.592008 195.69287 104.88245 168.56639 111.84021 "
       id="path1013" />
    <path
       style="color:#000000;display:inline;overflow:visible;visibility:visible;fill:none;fill-opacity:0;fill-rule:nonzero;stroke:#808080;stroke-width:2.45861483;stroke-linecap:butt;stroke-linejoin:miter;stroke-miterlimit:4;stroke-dasharray:none;stroke-dashoffset:0;stroke-opacity:1;marker:none;enable-background:accumulate"
       d="M 127.22489 85.535062 C 118.9977 70.70561 124.82021 51.625324 139.38266 43.17189 C 155.48644 33.823716 181.06245 42.08087 191.75164 54.746395 C 196.26811 60.097917 196.89677 67.869323 196.46905 74.855281 C 192.0394 75.655283 187.40686 75.149936 183.26367 73.385651 C 172.17243 68.662697 166.50123 55.496984 171.30009 44.309804 C 175.74479 33.948236 188.07035 28.654774 198.52689 33.177714 C 208.15886 37.343991 213.0747 48.829685 208.82748 58.555482 C 204.93983 67.457932 194.29372 71.996323 185.29876 68.024593 C 177.12574 64.415784 172.9646 54.608851 176.66114 46.344901 C 179.99078 38.901173 188.95903 35.117039 196.49179 38.538771 C 203.20639 41.588855 206.61387 49.719079 203.46643 56.520385 C 200.69645 62.506063 193.40334 65.537364 187.33385 62.663536 C 182.07678 60.174378 179.42098 53.717131 182.02219 48.379999 C 184.22947 43.85111 189.85274 41.569796 194.4567 43.899829 C 198.25805 45.823676 200.1665 50.615897 198.10537 54.485289 C 196.46748 57.560145 192.50127 59.098563 189.36895 57.302477 C 187.01885 55.954916 185.84497 52.804972 187.38326 50.415096 C 188.43146 48.786603 190.78858 47.964533 192.4216 49.260888 C 193.33452 49.98561 193.83993 51.632612 192.74432 52.450193 C 192.34002 52.751889 191.09794 52.747802 191.40406 51.941418 "
       id="path1011" />
    <path
       style="color:#000000;display:inline;overflow:visible;visibility:visible;fill:none;fill-opacity:0;fill-rule:nonzero;stroke:#808080;stroke-width:2.45861483;stroke-linecap:butt;stroke-linejoin:miter;stroke-miterlimit:4;stroke-dasharray:none;stroke-dashoffset:0;stroke-opacity:1;marker:none;enable-background:accumulate"
       d="M 150.01324 92.25422 C 143.99743 91.264064 138.41103 87.663467 135.1517 82.140465 C 128.83865 71.442892 132.97313 57.432904 143.54158 51.218837 C 155.20445 44.361274 169.21105 49.705868 177.21662 60.39994 C 186.78166 73.177199 180.38434 91.889202 167.8452 99.212448 C 167.15297 99.616734 166.44844 99.981558 165.7336 100.30814 "
       id="path1007" />
    <path
       style="color:#000000;display:inline;overflow:visible;visibility:visible;fill:none;fill-opacity:0;fill-rule:nonzero;stroke:#808080;stroke-width:2.45861483;stroke-linecap:butt;stroke-linejoin:miter;stroke-miterlimit:4;stroke-dasharray:none;stroke-dashoffset:0;stroke-opacity:1;marker:none;enable-background:accumulate"
       d="M 156.78828 92.243384 C 154.53542 92.62961 152.24478 92.621515 150.01324 92.25422 "
       id="path1005" />
    <path
       style="color:#000000;display:inline;overflow:visible;visibility:visible;fill:none;fill-opacity:0;fill-rule:nonzero;stroke:#808080;stroke-width:2.45861483;stroke-linecap:butt;stroke-linejoin:miter;stroke-miterlimit:4;stroke-dasharray:none;stroke-dashoffset:0;stroke-opacity:1;marker:none;enable-background:accumulate"
       d="M 155.75899 72.440564 C 154.92078 73.875297 153.24053 74.486069 152.12144 73.347103 C 150.66406 71.863849 151.59409 69.872927 152.65055 69.171245 C 154.53451 67.91996 157.1036 68.318965 158.30014 70.176601 C 159.72161 72.383471 158.89239 75.351184 156.72754 76.73183 C 154.17665 78.358671 150.75731 77.397162 149.17464 74.89295 C 147.32359 71.964065 148.43077 68.049347 151.30808 66.245939 C 154.65055 64.150987 159.10642 65.41788 161.15013 68.703629 C 163.50949 72.496852 162.06821 77.541693 158.33708 79.846083 C 154.05432 82.491169 148.37068 80.860186 145.7844 76.645141 C 142.83142 71.832463 144.66808 65.458157 149.40718 62.567951 C 154.79175 59.284094 161.91061 61.343046 165.12761 66.647939 C 168.76615 72.647985 166.46765 80.567319 160.55362 84.134786 C 153.89293 88.152664 145.11517 85.596699 141.17272 79.028607 C 136.75005 71.660487 139.58202 61.964345 146.85072 57.621555 C 154.97464 52.767795 165.65118 55.894984 170.42047 63.912417 C 175.73243 72.842115 172.2902 84.563067 163.47428 89.785854 C 161.35402 91.041953 159.09088 91.848631 156.78828 92.243384 "
       id="path4012" />
    <path
       style="color:#000000;display:inline;overflow:visible;visibility:visible;fill:none;fill-opacity:1;fill-rule:nonzero;stroke:#6090c0;stroke-width:5.39410591;stroke-linecap:butt;stroke-linejoin:miter;stroke-miterlimit:4;stroke-dasharray:none;stroke-dashoffset:0;stroke-opacity:1;marker:none;enable-background:accumulate"
       d="M 33.925627 87.461461 A 98.531036 98.531036 0 0 1 123.84276 29.220306 A 98.531036 98.531036 0 0 1 222.37379 127.75134 L 222.37379 127.75134 A 98.531036 98.531036 0 0 1 221.98243 136.52457 "
       id="path1053" />
    <path
       style="color:#000000;display:inline;overflow:visible;visibility:visible;fill:none;fill-opacity:1;fill-rule:nonzero;stroke:#6090c0;stroke-width:5.39410591;stroke-linecap:butt;stroke-linejoin:miter;stroke-miterlimit:4;stroke-dasharray:none;stroke-dashoffset:0;stroke-opacity:1;marker:none;enable-background:accumulate"
       d="M 195.74757 195.11648 A 98.531036 98.531036 0 0 1 123.84276 226.28238 A 98.531036 98.531036 0 0 1 25.775335 137.29836 "
       id="path1049" />
  </g>
  <g
     id="layer2"
     style="display:none;opacity:0.219">
    <path
       style="color:#000000;font-style:normal;font-variant:normal;font-weight:bold;font-stretch:normal;font-size:46.55031586px;line-height:125%;font-family:'Bitstream Charter';-inkscape-font-specification:'Bitstream Charter Bold';font-variant-ligatures:normal;font-variant-position:normal;font-variant-caps:normal;font-variant-numeric:normal;font-variant-alternates:normal;font-feature-settings:normal;text-indent:0;text-align:start;text-decoration:none;text-decoration-line:none;text-decoration-style:solid;text-decoration-color:#000000;letter-spacing:0px;word-spacing:0px;text-transform:none;writing-mode:lr-tb;direction:ltr;text-orientation:mixed;dominant-baseline:auto;baseline-shift:baseline;text-anchor:start;white-space:normal;shape-padding:0;clip-rule:nonzero;display:inline;overflow:visible;visibility:visible;opacity:1;isolation:auto;mix-blend-mode:normal;color-interpolation:sRGB;color-interpolation-filters:linearRGB;solid-color:#000000;solid-opacity:1;vector-effect:none;fill:#ff0000;fill-opacity:1;fill-rule:nonzero;stroke:none;stroke-width:9.5860424;stroke-linecap:round;stroke-linejoin:miter;stroke-miterlimit:4;stroke-dasharray:none;stroke-dashoffset:0;stroke-opacity:1;color-rendering:auto;image-rendering:auto;shape-rendering:auto;text-rendering:auto;enable-background:accumulate"
       d="m 96.046875,83.09375 -12.748047,3.890625 c -1.272571,-1.280977 -2.936033,-2.057371 -4.716797,-2.488281 -0.64651,-0.297096 -1.351051,-0.446544 -2.0625,-0.4375 -0.723313,-0.0082 -1.43911,0.14735 -2.09375,0.455078 -4.124728,1.049355 -7.330078,4.822349 -7.330078,9.162109 0,2.812985 1.360066,5.293507 3.34375,7.050779 l -4.751953,1.58399 c -0.295848,-0.25245 -0.558873,-0.54563 -0.876953,-0.76563 -2.860712,-1.978551 -6.460448,-2.886717 -10.517578,-2.886717 -6.875403,0 -12.859386,3.187847 -16.75586,8.142577 V 92.873047 c 0.193957,-1.203264 -0.07772,-2.435227 -0.759765,-3.445313 -0.0335,-0.0521 -0.06802,-0.103538 -0.103516,-0.154296 -0.01735,-0.02425 -0.03493,-0.04834 -0.05273,-0.07227 -0.805947,-1.112634 -2.050558,-1.825974 -3.417969,-1.958984 -3.807079,-1.331253 -7.640541,-2.087891 -11.451172,-2.087891 -5.435418,0 -10.284643,1.681408 -13.7421874,4.873047 -3.4575446,3.191638 -5.3183593,7.800789 -5.3183594,12.625 0,3.42183 1.0874754,6.72673 3.0449219,9.2793 0.594448,0.77518 1.3442898,1.38376 2.0449219,2.04297 H 2.1816406 v 20.90625 l 3.328125,1.06836 c 4.8822444,1.56798 9.3586094,2.36133 13.4765624,2.36133 5.623732,0 10.689133,-1.70235 14.267578,-5.14258 0.836437,-0.80413 1.555735,-1.70674 2.197266,-2.66211 0.830852,1.57581 1.789224,3.06937 3.019531,4.34375 3.636906,3.76718 8.887853,5.87891 14.664063,5.87891 3.473975,0 6.815628,-0.91197 10.101562,-2.18555 v 1.66992 h 15.087891 v 7.05664 l 4.591797,0.19531 c 0.586116,0.0248 0.757021,0.0867 1.154296,0.14454 v 34.93359 c -0.397256,0.0579 -0.568237,0.11977 -1.154296,0.14453 l -4.591797,0.19336 v 12.15234 h 30.765621 1.94922 25.95313 4.81054 40.92774 4.23437 24.14454 c 1.517,0.24872 3.06126,-0.24521 4.15234,-1.32812 0.039,-0.0358 0.0774,-0.0723 0.11523,-0.10938 1.06596,-1.08939 1.55032,-2.62078 1.30469,-4.125 v -6.37695 l -0.0801,-0.004 v -8.08789 c 3.44222,-0.0289 5.90752,-0.35281 7.91211,-1.7207 2.09863,-1.43206 2.03866,-2.01088 3.11524,-2.7832 l 0.002,-0.002 0.004,-0.004 c 4.81689,-3.46818 7.59375,-9.26856 7.59375,-15.81641 0,-7.25625 -3.57564,-13.08972 -8.47266,-16.08789 -4.84996,-2.96936 -10.47888,-3.46875 -16.68555,-3.46875 h -24.29101 -3.04883 -14.18945 V 124.4568 l -5.95508,1.48828 c -0.81232,0.20308 -1.74207,0.3086 -3.01953,0.3086 -0.3164,0 -0.26322,-1.2e-4 -0.41797,-0.006 -0.0538,-0.322 -0.12696,-0.6847 -0.12696,-1.44141 v -8.96094 h 9.51954 V 100.1383 H 159.0216 V 92.162109 H 142.5 l -1.5918,3.183594 c 0.12627,-0.603113 0.38086,-1.169378 0.38086,-1.798828 0,-4.27981 -3.34909,-8.033497 -7.55859,-9.050781 -0.64532,-0.296529 -1.34846,-0.445963 -2.05859,-0.4375 -0.72332,-0.0082 -1.43912,0.147349 -2.09376,0.455078 -4.12525,1.048944 -7.33203,4.821971 -7.33203,9.162109 0,2.164041 0.89956,4.079252 2.16016,5.691407 H 104.25586 V 83.09375 Z m 28.664065,16.714844 c 0.28505,0.326826 0.55515,0.631166 0.8789,0.917966 l -0.8789,0.29297 z m -91.476565,8.404296 h 3.195313 c -0.423904,0.64575 -0.750162,1.3585 -1.103516,2.05273 -0.337803,-0.41762 -0.653569,-0.86404 -1.027344,-1.22851 -0.329846,-0.32164 -0.721184,-0.53107 -1.064453,-0.82422 z"
       id="path4083" />
    <path
       id="rect4062"
       d="m 153.18028,142.65407 h 42.17851 v 45.08738 h -42.17851 z"
       style="color:#000000;display:inline;overflow:visible;visibility:visible;fill:#ff0000;fill-opacity:1;fill-rule:nonzero;stroke:none;stroke-width:2;marker:none;enable-background:accumulate" />
  </g>
  <g
     id="layer1"
     style="display:inline;stroke:none;stroke-opacity:1;fill:#6090c0;fill-opacity:1">
    <g
       transform="matrix(0.88660666,0,0,0.88660666,34.920523,24.083317)"
       id="text3010"
       style="color:#000000;font-style:normal;font-variant:normal;font-weight:bold;font-stretch:normal;font-size:94.28981017999998926px;line-height:125%;font-family:Utopia;-inkscape-font-specification:'Utopia Bold';text-align:center;letter-spacing:0px;word-spacing:0px;text-anchor:middle;display:inline;overflow:visible;visibility:visible;fill:#6090c0;fill-opacity:1;fill-rule:nonzero;stroke:none;marker:none;enable-background:accumulate;stroke-opacity:1">
      <path
         id="path4107"
         style="color:#000000;font-family:Utopia;-inkscape-font-specification:'Utopia Bold';display:inline;overflow:visible;visibility:visible;fill:#6090c0;fill-opacity:1;fill-rule:nonzero;stroke:none;marker:none;enable-background:accumulate;stroke-opacity:1"
         d="m 95.541259,179.45067 c 0,4.18358 -0.65626,4.59374 -6.480465,4.83984 v 3.11718 h 26.085926 v -3.11718 c -5.82421,-0.2461 -6.48047,-0.65626 -6.48047,-4.83984 v -40.85154 c 0,-4.18358 0.65626,-4.59375 6.48047,-4.83984 V 130.6421 H 89.060794 v 3.11719 c 5.824205,0.24609 6.480465,0.65626 6.480465,4.83984 v 16.89842 H 73.967055 v -16.89842 c 0,-4.18358 0.656255,-4.59375 6.480464,-4.83984 v -3.11719 h -26.08592 v 3.11719 c 5.824209,0.24609 6.480464,0.65626 6.480464,4.83984 v 40.85154 c 0,4.18358 -0.656255,4.59374 -6.480464,4.83984 v 3.11718 h 26.08592 v -3.11718 c -5.824209,-0.2461 -6.480464,-0.65626 -6.480464,-4.83984 v -20.01561 h 21.574204 v 20.01561" />
      <path
         id="path4109"
         style="color:#000000;font-family:Utopia;-inkscape-font-specification:'Utopia Bold';display:inline;overflow:visible;visibility:visible;fill:#6090c0;fill-opacity:1;fill-rule:nonzero;stroke:none;marker:none;enable-background:accumulate;stroke-opacity:1"
         d="m 127.01175,179.45067 c 0,4.18358 -0.65625,4.59374 -6.48046,4.83984 v 3.11718 h 45.85544 l 0.98437,-17.06249 h -3.11718 c -2.95312,8.77733 -4.34766,13.28906 -14.02734,13.28906 -7.54685,0 -10.08984,-0.73829 -10.08984,-5.98828 v -17.88281 h 7.79298 c 5.16795,0 6.23436,1.39455 7.54686,7.38282 h 3.11719 v -19.03124 h -3.11719 c -1.3125,5.98827 -2.37891,7.3828 -7.54686,7.3828 h -7.79298 v -18.12888 c 0,-2.37891 0.57423,-2.95313 2.8711,-2.95313 h 6.15234 c 8.4492,0 9.92577,3.28126 12.46874,11.40234 h 3.11719 V 130.6421 h -44.21482 v 3.11719 c 5.82421,0.24609 6.48046,0.65626 6.48046,4.83984 v 40.85154" />
      <path
         id="path4111"
         style="color:#000000;font-family:Utopia;-inkscape-font-specification:'Utopia Bold';display:inline;overflow:visible;visibility:visible;fill:#6090c0;fill-opacity:1;fill-rule:nonzero;stroke:none;marker:none;enable-background:accumulate;stroke-opacity:1"
         d="m 191.72667,137.4507 c 0,-2.29688 0.65625,-3.03516 4.83985,-3.03516 5.49608,0 10.17187,3.69142 10.17187,13.12499 0,6.23436 -2.13283,13.53515 -10.41797,13.53515 -3.19921,0 -4.59375,-0.41016 -4.59375,-3.52734 V 137.4507 m 7.875,49.95699 v -2.95312 c -7.21874,-0.41016 -7.875,-0.82032 -7.875,-5.0039 v -14.60156 h 4.92188 c 7.71092,0 13.78124,-1.39453 17.55467,-4.10156 4.10155,-2.95312 6.3164,-7.38281 6.3164,-13.45312 0,-6.56248 -2.95312,-11.0742 -6.97265,-13.53514 -4.01953,-2.46094 -9.35156,-3.11719 -15.99608,-3.11719 h -25.42967 v 3.11719 c 5.82421,0.24609 6.48046,0.65626 6.48046,4.83984 v 40.85154 c 0,4.18358 -0.65625,4.59374 -6.48046,4.83984 v 3.11718 h 27.48045" />
    </g>
    <g
       id="text3026"
       style="font-style:normal;font-variant:normal;font-weight:normal;font-stretch:normal;font-size:65.24301909999999793px;line-height:125%;font-family:Utopia;-inkscape-font-specification:Utopia;text-align:center;letter-spacing:0px;word-spacing:0px;text-anchor:middle;fill:#6090c0;fill-opacity:1;stroke:none;stroke-opacity:1"
       transform="matrix(0.9897719,0,0,1.0103338,8.834291,1.7122606)"
       aria-label="S">
      <path
         d="m -2.970443,129.17916 c 4.0450672,1.43534 8.4163495,2.15302 12.5919027,2.15302 10.6998553,0 17.2894003,-5.6109 17.2894003,-13.37482 0,-3.84934 -2.087777,-7.37246 -5.871872,-9.78646 -3.849338,-2.47923 -7.307218,-3.45788 -9.329752,-4.69749 -3.4578797,-2.08778 -5.2846842,-4.045071 -5.2846842,-7.04625 0,-3.588366 2.9359358,-6.198087 7.6986762,-6.198087 2.087777,0 3.588366,0.326215 4.76274,0.913402 l 0.913403,0.913403 1.109131,6.785274 h 4.697497 V 88.271783 c -4.11031,-1.435347 -8.22062,-2.218263 -12.265687,-2.218263 -9.3297519,0 -15.3973527,5.6109 -15.3973527,12.852875 0,3.196905 1.56583244,6.393815 4.5670113,8.938295 2.8706929,2.41399 5.9371148,3.52312 8.5468354,4.82798 4.632254,2.34875 6.981003,4.6975 6.981003,8.22062 0,3.58837 -3.131665,6.19809 -8.4163493,6.19809 -2.0225336,0 -3.9145811,-0.32622 -5.7413857,-0.9134 L 3.0319148,125.19933 1.9880265,117.37017 H -2.970443 Z M 138.8377,105.98342 v 18.52627 c 0,3.24686 0.0649,5.28412 2.33952,6.7484 1.49468,1.01863 3.24933,1.40062 5.39389,1.40062 2.66445,0 6.04378,-0.63666 9.94298,-2.03726 v -3.05588 c -1.29973,0.31832 -2.66446,0.44564 -4.22415,0.44564 -4.28911,0 -5.39388,-1.65527 -5.39388,-6.17542 v -15.85237 h 9.61803 v -3.81986 h -9.61803 v -7.894348 h -4.09417 l -3.37932,6.621068 -4.80901,2.6739 v 2.41924 h 4.22414 M 124.10601,86.247529 c -2.66446,0 -4.67905,2.037256 -4.67905,4.774811 0,2.80122 2.14456,4.711149 4.74403,4.711149 2.72945,0 4.80902,-1.973593 4.80902,-4.838476 0,-2.610228 -1.9496,-4.647484 -4.874,-4.647484 m 0.71485,14.515431 -9.16313,2.99222 v 2.54656 h 4.28913 v 21.96414 l -0.90982,0.95495 -3.50929,0.25466 v 2.8649 h 17.02653 v -2.8649 l -3.63926,-0.25466 -0.9748,-0.95495 v -27.50292 h -3.11936 m -45.538443,31.57743 h 16.376659 v -2.80124 l -3.249337,-0.25466 -0.844828,-0.89128 v -10.44094 h 3.18435 l 7.538459,11.9052 v 2.48292 h 12.47746 v -2.80124 l -3.83422,-0.31832 -10.33289,-16.42535 7.40849,-8.08534 4.22414,-0.50932 V 101.3996 H 98.9734 v 2.80122 l 2.85942,0.31832 0.4549,0.7003 -9.293101,10.63191 H 91.564911 V 85.292567 h -2.729444 l -10.007958,2.992215 v 2.482901 h 4.744032 v 37.498197 l -0.909814,0.95495 -3.37931,0.31832 v 2.80124 M 68.384957,86.247529 c -2.664454,0 -4.679046,2.037256 -4.679046,4.774811 0,2.80122 2.144566,4.711149 4.744032,4.711149 2.729441,0 4.80902,-1.973593 4.80902,-4.838476 0,-2.610228 -1.949607,-4.647484 -4.874006,-4.647484 m 0.714854,14.515431 -9.163131,2.99222 v 2.54656 h 4.289126 v 21.96414 l -0.909816,0.95495 -3.509283,0.25466 v 2.8649 h 17.026526 v -2.8649 l -3.639256,-0.25466 -0.974803,-0.95495 v -27.50292 h -3.119363 m -12.059105,28.71253 v -4.52015 c -3.184348,1.90993 -6.238731,2.86487 -9.033158,2.86487 -6.043761,0 -10.007958,-4.52014 -10.007958,-12.15984 0,-7.25771 3.964196,-11.84153 8.513263,-11.84153 0.454907,0 0.974801,0.0637 1.624668,0.19098 v 6.74841 c 1.169761,0.82763 2.404512,1.20963 3.834219,1.20963 2.794427,0 4.679044,-1.84628 4.679044,-4.32918 0,-3.8835 -4.029184,-6.93939 -10.722812,-6.93939 -9.748002,0 -16.766579,6.81208 -16.766579,16.48902 0,9.23129 6.17375,15.66138 15.596817,15.66138 4.159149,0 8.123348,-1.14596 12.282496,-3.3742"
         style="font-style:normal;font-variant:normal;font-weight:bold;font-stretch:normal;font-family:'Bitstream Charter';-inkscape-font-specification:'Bitstream Charter';fill:#6090c0;fill-opacity:1;stroke:none;stroke-opacity:1"
         id="path846" />
    </g>
  </g>
</svg>
