<?xml version="1.0" standalone="no"?>
<!DOCTYPE svg PUBLIC "-//W3C//DTD SVG 20010904//EN"
 "http://www.w3.org/TR/2001/REC-SVG-20010904/DTD/svg10.dtd">
<svg version="1.0" xmlns="http://www.w3.org/2000/svg"
 width="512.000000pt" height="512.000000pt" viewBox="0 0 512.000000 512.000000"
 preserveAspectRatio="xMidYMid meet">
<metadata>
Created by potrace 1.11, written by Peter Selinger 2001-2013
</metadata>
<g transform="translate(0.000000,512.000000) scale(0.100000,-0.100000)"
fill="#000000" stroke="none">
<path d="M4787 4683 c-47 -109 -111 -257 -142 -330 l-57 -132 -102 -67 c-55
-37 -139 -94 -185 -126 -45 -33 -85 -58 -87 -56 -2 2 2 32 8 66 22 117 -21
250 -112 346 -160 169 -429 171 -606 4 l-52 -49 -78 40 c-191 96 -388 156
-644 197 -19 3 -120 7 -225 9 -175 3 -224 -1 -405 -29 -110 -17 -320 -84 -448
-142 -41 -19 -78 -34 -82 -34 -4 0 -57 41 -116 92 -161 136 -374 298 -390 298
-13 0 -15 -4 -18 -29 -1 -5 51 -49 115 -97 173 -133 348 -278 348 -289 0 -5
-37 -32 -82 -59 -176 -105 -389 -288 -508 -436 -24 -30 -46 -57 -49 -60 -34
-32 -240 -376 -240 -402 0 -5 64 -35 86 -40 6 -2 32 37 58 86 173 330 430 601
737 777 84 48 91 50 113 36 26 -17 381 -369 471 -467 84 -92 239 -272 338
-394 31 -38 42 -45 53 -35 8 6 14 16 14 21 0 18 -247 310 -399 473 -36 39
-151 154 -255 257 l-189 188 34 14 c164 68 267 101 409 130 118 25 192 31 385
31 208 0 289 -10 495 -60 37 -9 150 -46 150 -49 0 -2 -15 -4 -32 -4 -117 0
-261 -42 -356 -104 -117 -76 -219 -211 -267 -353 -46 -139 -38 -318 21 -453
21 -48 25 -52 44 -42 11 6 20 12 20 14 0 1 -11 30 -25 63 -31 78 -36 101 -39
202 -6 166 57 324 177 445 78 79 137 115 237 149 56 19 87 22 215 22 144 -1
153 -2 213 -29 48 -22 61 -33 57 -45 -4 -9 -11 -38 -17 -66 -7 -27 -13 -52
-14 -54 -2 -2 -22 6 -46 17 -285 138 -606 -11 -688 -317 -26 -96 -7 -242 42
-329 127 -227 417 -303 627 -164 51 34 141 140 141 167 0 12 77 48 133 61 20
5 27 2 27 -9 0 -21 -19 -70 -29 -77 -13 -7 -137 -117 -201 -176 -30 -28 -76
-70 -102 -95 -50 -45 -59 -66 -33 -75 14 -6 84 52 240 198 53 50 63 48 27 -5
-39 -56 -110 -120 -161 -147 -36 -18 -40 -23 -31 -40 15 -27 23 -26 86 16 77
51 149 136 196 232 36 72 52 91 125 152 69 58 91 70 121 71 49 1 103 7 107 11
2 2 5 24 6 48 3 52 14 80 33 80 16 0 116 -143 175 -251 l41 -77 -61 -120 c-69
-135 -55 -123 -231 -193 -161 -64 -433 -156 -515 -173 -24 -6 -30 -11 -26 -24
4 -9 11 -20 16 -23 17 -12 366 101 565 182 l93 38 -56 -104 c-30 -57 -111
-203 -180 -326 -69 -122 -125 -225 -125 -229 0 -12 32 -22 41 -13 12 13 187
322 293 520 l98 182 75 35 c41 20 81 36 88 36 14 0 32 -53 64 -191 37 -159 46
-244 46 -444 l0 -160 51 -3 c35 -2 53 1 56 10 7 17 2 354 -5 393 -3 17 -9 50
-12 75 -15 104 -62 297 -90 362 -5 13 3 22 37 38 116 59 465 263 488 286 5 5
4 16 -4 26 -11 15 -28 7 -177 -81 -223 -133 -359 -205 -368 -195 -4 5 -22 43
-39 85 l-33 76 39 84 c22 46 69 145 104 219 36 74 91 194 123 265 32 72 65
137 72 146 8 9 56 43 108 75 81 50 92 60 84 76 -12 23 -24 23 -57 0 -15 -10
-44 -29 -64 -41 l-37 -22 26 58 c14 32 72 166 129 297 103 238 108 255 68 256
-7 0 -50 -89 -97 -197z m-900 -228 c101 -18 205 -100 255 -202 28 -58 32 -75
32 -152 1 -106 -28 -179 -91 -229 -41 -32 -41 -32 -55 -11 -12 19 -11 24 16
53 126 135 72 369 -106 455 -54 26 -71 29 -137 26 -88 -3 -152 -28 -211 -82
-38 -34 -39 -34 -65 -17 l-26 17 33 34 c87 91 222 132 355 108z m47 -139 c84
-49 128 -124 128 -217 0 -64 -20 -118 -57 -155 l-26 -26 -19 22 c-11 13 -16
28 -13 34 4 6 18 27 31 46 43 63 18 172 -50 223 -77 58 -188 53 -261 -11 -15
-13 -21 -13 -42 -2 -14 7 -25 17 -25 21 0 15 82 72 123 85 63 21 157 12 211
-20z m-45 -105 c57 -41 76 -113 46 -171 -17 -33 -31 -36 -59 -15 -17 13 -17
15 -2 37 22 32 20 55 -9 83 -26 27 -72 33 -106 15 -14 -8 -25 -6 -44 6 -30 20
-25 31 27 54 50 22 108 19 147 -9z m-396 -46 c-3 -11 -9 -48 -12 -82 l-6 -63
-33 31 c-34 32 -34 31 -10 126 l11 43 28 -17 c22 -13 27 -22 22 -38z m82 -31
c16 -12 20 -27 21 -72 0 -43 7 -70 29 -110 45 -82 108 -122 200 -125 63 -2 75
-9 75 -44 0 -27 -17 -31 -97 -21 -108 12 -193 74 -242 172 -24 50 -38 146 -27
191 7 29 13 30 41 9z m-347 -24 c84 -28 131 -57 137 -86 3 -13 7 -36 10 -51 3
-16 9 -37 12 -48 4 -15 -4 -11 -35 17 -76 69 -162 99 -272 94 -301 -13 -438
-402 -207 -589 23 -19 65 -42 92 -52 57 -19 162 -23 193 -6 40 22 37 10 -11
-41 -44 -47 -52 -51 -91 -51 -59 1 -153 29 -201 60 -224 145 -251 455 -59 649
51 51 135 100 197 114 63 15 172 11 235 -10z m1286 -46 c-88 -196 -239 -511
-248 -522 -10 -10 -17 -3 -36 30 -13 24 -50 83 -83 131 l-60 88 34 36 c41 42
409 307 416 299 2 -2 -8 -30 -23 -62z m-674 36 c14 -27 -6 -27 -40 0 l-25 20
27 0 c17 0 31 -7 38 -20z m-139 -69 c13 -16 31 -38 39 -49 8 -10 29 -27 47
-36 30 -15 83 -61 83 -71 0 -12 -70 -2 -108 15 -70 32 -106 79 -118 157 -5 32
-4 34 14 24 11 -6 30 -24 43 -40z m-223 -81 c60 -70 134 -212 118 -227 -3 -3
-28 18 -56 46 -49 49 -100 140 -115 206 l-6 29 23 -19 c12 -11 29 -27 36 -35z
m-232 5 c66 -32 117 -84 152 -155 24 -48 27 -67 27 -148 0 -92 -1 -94 -30
-118 -16 -13 -34 -24 -38 -24 -5 0 -22 -10 -39 -21 l-30 -21 33 58 c30 52 33
67 34 134 0 86 -18 133 -73 188 -102 101 -265 101 -357 -1 -48 -52 -64 -98
-61 -170 8 -177 220 -267 347 -148 25 24 59 101 59 136 0 113 -120 200 -226
165 -85 -28 -125 -120 -91 -203 25 -59 92 -91 158 -75 45 12 66 33 84 84 31
90 -63 171 -147 128 -51 -26 -62 -74 -27 -118 24 -30 69 -35 94 -10 21 21 2
45 -34 42 -34 -4 -39 24 -7 42 56 29 102 -47 58 -97 -30 -35 -78 -34 -116 3
-28 29 -33 67 -14 109 26 57 115 73 166 30 45 -38 58 -78 43 -133 -43 -161
-275 -132 -298 37 -11 82 42 166 122 194 102 36 204 -8 251 -108 30 -63 30
-120 1 -188 -57 -127 -201 -177 -331 -113 -221 108 -192 433 46 518 72 25 171
19 244 -17z m314 -270 c68 -50 66 -68 -12 -94 -34 -12 -64 -21 -67 -21 -3 0
-6 45 -7 99 0 97 0 98 18 76 10 -13 41 -40 68 -60z m145 50 c38 -15 80 -25
113 -25 l54 0 -29 -23 c-50 -42 -62 -45 -109 -31 -69 21 -81 30 -86 69 -2 19
-4 35 -3 35 0 0 27 -11 60 -25z m195 -75 c0 -5 -5 -10 -11 -10 -5 0 -7 5 -4
10 3 6 8 10 11 10 2 0 4 -4 4 -10z m-200 -87 c0 -5 -12 -16 -25 -26 -24 -17
-25 -17 -25 2 0 12 8 21 23 24 12 2 23 5 25 6 1 0 2 -2 2 -6z m-349 -142 c-23
-32 -70 -70 -118 -95 -43 -22 -50 -20 -27 5 18 20 152 119 161 119 3 0 -5 -13
-16 -29z m909 -177 c0 -5 -24 -22 -54 -36 -60 -28 -60 -32 -11 66 l29 60 18
-40 c10 -21 18 -44 18 -50z"/>
<path d="M1927 3363 c-2 -2 -46 -16 -98 -31 -85 -25 -93 -30 -93 -53 0 -25 2
-26 62 -28 l32 -1 -2 -382 -3 -383 -42 -9 c-35 -8 -42 -13 -38 -30 2 -12 4
-24 4 -27 1 -3 73 -6 161 -6 l160 0 0 29 c0 24 -4 28 -29 28 -46 0 -52 17 -49
131 3 98 4 102 25 104 12 1 26 -1 31 -4 18 -13 146 -228 152 -256 l6 -30 119
0 120 0 2 28 c2 24 -2 27 -26 27 -16 0 -38 8 -49 18 -23 19 -204 312 -200 323
10 24 151 166 165 166 57 0 61 2 59 33 l-1 30 -131 -1 -131 0 1 -27 c1 -20 8
-27 34 -34 37 -10 35 -16 -13 -70 -16 -18 -54 -61 -83 -96 -30 -34 -60 -62
-68 -62 -12 0 -14 50 -14 305 0 168 -3 305 -7 306 -5 0 -18 2 -31 3 -12 2 -24
1 -25 -1z"/>
<path d="M319 3329 c-112 -39 -180 -128 -180 -234 0 -106 62 -187 197 -254
148 -75 194 -121 194 -197 0 -84 -78 -132 -198 -121 -79 8 -101 27 -103 91 -1
22 -4 54 -8 71 -6 27 -10 30 -54 32 -42 2 -47 0 -48 -20 0 -12 -1 -67 -1 -122
l-1 -99 29 -8 c281 -80 509 -8 555 175 15 62 5 124 -31 181 -32 50 -89 91
-210 148 -114 54 -164 113 -153 181 11 70 65 109 151 108 88 -1 104 -14 120
-99 l14 -72 43 0 c25 0 45 5 47 13 5 16 2 196 -3 202 -14 14 -137 37 -214 40
-70 2 -102 -1 -146 -16z"/>
<path d="M1488 3332 c-87 -44 -55 -177 43 -177 49 0 85 35 92 86 9 72 -68 124
-135 91z"/>
<path d="M2598 3338 c-37 -13 -63 -66 -54 -112 7 -39 51 -76 89 -76 33 0 76
33 87 66 26 79 -43 148 -122 122z"/>
<path d="M3022 3182 c-16 -2 -32 -22 -56 -70 -28 -56 -42 -71 -80 -91 -37 -19
-46 -29 -46 -51 0 -25 3 -26 40 -25 22 1 40 -3 41 -9 0 -6 1 -111 2 -232 2
-206 3 -223 22 -244 47 -52 135 -64 250 -35 71 19 84 28 78 58 -4 22 -9 23
-74 23 -58 -1 -72 2 -91 22 -22 21 -23 29 -24 216 -2 140 1 196 9 199 7 2 44
3 82 2 89 -2 102 4 97 47 l-4 33 -91 0 -92 0 -1 50 c-1 28 -2 62 -3 76 -1 28
-19 37 -59 31z"/>
<path d="M981 3038 c-59 -16 -136 -73 -169 -124 -42 -62 -55 -112 -55 -204 0
-128 60 -227 168 -276 93 -43 229 -36 337 17 42 20 44 23 42 62 -1 23 -2 43
-3 44 0 1 -26 -10 -56 -23 -67 -31 -154 -35 -202 -11 -121 63 -152 269 -62
402 25 36 81 65 124 65 24 0 25 -2 25 -69 0 -79 9 -92 68 -93 49 0 79 18 93
59 19 58 -23 122 -98 149 -44 15 -162 17 -212 2z"/>
<path d="M1445 3020 c-70 -24 -80 -31 -83 -54 -3 -25 -1 -26 41 -26 l45 0 -2
-224 c0 -123 -4 -228 -8 -232 -4 -4 -20 -8 -35 -10 -16 -1 -31 -2 -35 -3 -5
-1 -8 -14 -8 -29 l0 -29 168 1 167 1 1 28 c1 25 -10 33 -40 28 -4 -1 -18 5
-30 12 -21 14 -21 19 -21 291 l0 276 -40 -1 c-22 0 -76 -13 -120 -29z"/>
<path d="M2595 3035 c-22 -8 -61 -22 -87 -31 -40 -13 -47 -19 -44 -37 2 -18
11 -23 44 -25 l42 -3 0 -224 c0 -232 -1 -238 -42 -241 -10 -1 -25 -2 -34 -3
-11 -1 -14 -9 -12 -28 l3 -28 165 0 165 0 3 28 c2 17 -2 27 -10 28 -41 2 -60
7 -68 15 -6 6 -10 125 -11 287 l0 277 -37 0 c-20 -1 -55 -7 -77 -15z"/>
<path d="M478 2372 c-14 -3 -17 -11 -13 -35 3 -18 7 -48 9 -67 3 -19 10 -60
16 -90 6 -30 14 -68 17 -85 13 -78 100 -313 157 -426 235 -468 622 -817 1110
-999 94 -35 266 -82 346 -94 19 -3 46 -8 60 -11 51 -10 178 -19 288 -19 94 0
112 -2 112 -16 1 -16 9 -127 14 -200 2 -25 4 -64 5 -87 1 -39 3 -43 27 -43
l25 0 -6 103 c-3 56 -8 135 -11 175 -5 65 -3 72 13 73 10 0 27 2 38 4 11 2 45
6 75 10 61 8 73 10 119 20 36 8 37 6 45 -80 3 -33 11 -108 17 -167 12 -105 13
-107 37 -105 26 2 26 6 6 177 -18 156 -20 192 -10 195 78 23 251 81 286 97
162 73 333 172 432 249 32 26 45 30 125 33 48 2 112 12 141 21 57 17 143 64
179 97 19 17 20 23 8 34 -18 18 -15 19 -74 -20 -65 -44 -146 -74 -219 -82
l-57 -6 78 78 78 77 -33 34 c-17 18 -37 33 -42 33 -6 -1 -54 -41 -106 -91 -52
-49 -105 -92 -117 -95 -33 -9 -132 49 -196 113 -52 51 -57 54 -76 41 -20 -14
-19 -16 41 -76 33 -33 88 -75 121 -93 l60 -32 -84 -55 c-107 -70 -295 -161
-427 -206 -139 -48 -139 -48 -141 16 -1 29 -3 73 -4 98 -2 44 -2 44 53 73 98
52 163 100 244 179 68 66 78 79 67 92 -20 24 -26 21 -78 -35 -61 -66 -142
-128 -226 -174 l-67 -37 -1 29 c-6 164 -9 217 -13 220 -2 2 -16 6 -31 9 -19 3
-31 -1 -40 -13 -31 -44 -257 -323 -267 -329 -15 -10 -249 237 -304 321 -18 28
-36 32 -53 11 -9 -10 7 -35 75 -117 47 -57 91 -109 98 -114 6 -6 24 -25 41
-43 l30 -33 -40 17 c-22 9 -56 23 -75 31 -19 9 -48 21 -65 28 -16 8 -66 28
-110 45 -44 17 -93 38 -110 45 -25 11 -88 37 -344 141 -38 16 -36 16 -45 -12
-5 -17 2 -24 51 -44 32 -13 166 -68 298 -123 132 -54 301 -124 375 -154 74
-30 139 -58 144 -63 4 -4 10 -45 13 -89 l6 -82 -144 5 c-278 11 -467 52 -709
154 -607 257 -1048 833 -1141 1490 l-11 83 -37 -3 c-20 -1 -44 -4 -53 -6z
m2409 -1325 l4 -104 -88 -26 c-118 -35 -146 -42 -142 -31 7 17 214 271 218
268 2 -2 6 -50 8 -107z m4 -164 c0 -5 2 -16 4 -25 2 -10 5 -48 7 -85 l3 -68
-50 -12 c-61 -16 -223 -38 -229 -32 -2 2 -7 38 -10 80 l-6 77 63 12 c34 6 94
22 132 35 80 27 85 28 86 18z"/>
<path d="M1664 2321 c-2 -2 -4 -14 -4 -26 0 -18 8 -23 47 -31 32 -6 51 -16 58
-30 7 -13 10 -165 10 -422 0 -450 3 -430 -73 -435 -38 -2 -42 -4 -42 -29 0
-22 5 -28 23 -29 30 -1 397 -1 424 0 15 1 20 6 18 19 -2 9 -4 22 -4 28 -1 6
-9 11 -18 11 -94 0 -93 -2 -93 236 l0 202 178 -1 c97 -1 183 -2 190 -3 9 -1
12 -48 12 -200 0 -221 -2 -230 -63 -232 -18 -1 -35 -1 -39 0 -5 0 -8 -2 -9 -7
0 -4 -2 -15 -4 -24 -2 -10 2 -21 7 -25 9 -5 283 -7 431 -4 22 1 27 6 27 26 0
14 -6 25 -12 26 -7 0 -26 3 -43 5 -62 10 -60 -5 -60 443 0 325 3 411 13 424 8
9 34 19 58 23 41 6 45 9 42 33 l-3 26 -220 0 c-121 1 -225 -1 -232 -3 -10 -3
-10 -38 0 -48 3 -4 44 -12 64 -13 6 -1 19 -8 27 -17 13 -13 16 -44 16 -188 l0
-172 -190 0 -190 0 0 171 c0 121 4 176 13 188 10 14 39 23 83 26 14 1 24 35
15 48 -6 8 -448 12 -457 4z"/>
<path d="M2839 2325 c0 0 -3 -12 -5 -27 -4 -23 -1 -28 16 -29 11 -1 25 -3 30
-4 6 -1 16 -3 24 -4 8 0 21 -8 30 -16 13 -13 15 -70 16 -410 0 -217 -2 -406
-6 -420 -6 -24 -26 -35 -78 -40 -11 -1 -24 -3 -27 -4 -4 0 -6 -12 -6 -26 0
-19 5 -25 21 -26 89 -2 788 0 791 3 2 1 6 70 10 151 l7 149 -27 -4 c-22 -2
-30 -13 -52 -68 -53 -132 -95 -162 -234 -162 -98 -1 -141 12 -157 46 -6 14
-11 100 -12 200 l-1 176 83 -1 c120 0 148 -13 173 -74 23 -57 30 -64 56 -58
18 5 19 15 17 172 -3 151 -5 166 -20 165 -35 -3 -38 -4 -38 -16 0 -27 -43 -98
-63 -104 -12 -4 -64 -8 -114 -9 l-93 -1 0 170 c0 94 5 178 10 186 7 12 32 15
107 16 54 0 112 -4 128 -9 62 -21 99 -67 125 -158 10 -35 12 -36 61 -30 4 1 6
61 5 133 l-1 133 -388 0 c-213 0 -387 0 -388 0z"/>
<path d="M3764 2322 c-16 -2 -20 -8 -16 -27 3 -20 12 -25 48 -31 24 -3 49 -12
55 -20 13 -15 17 -793 5 -832 -7 -21 -19 -27 -68 -36 -15 -3 -32 -7 -37 -10
-14 -9 0 -46 18 -47 25 -1 391 -1 432 0 29 1 35 5 34 21 -2 26 -3 27 -55 35
-87 13 -86 10 -85 205 l0 135 70 2 c195 4 293 33 362 105 106 111 101 322 -12
421 -43 38 -105 62 -185 74 -39 5 -533 10 -566 5z m512 -94 c18 -13 43 -41 56
-63 20 -34 23 -54 23 -140 0 -88 -3 -105 -25 -144 -29 -52 -64 -80 -111 -90
-34 -7 -104 1 -116 13 -10 10 -11 408 -1 428 16 33 124 30 174 -4z"/>
</g>
</svg>
